<svg width="64" height="64" viewBox="0 0 64 64" fill="none" xmlns="http://www.w3.org/2000/svg">
<path d="M37.3332 6.05176V17.0665C37.3332 18.56 37.3332 19.3067 37.6238 19.8772C37.8795 20.3789 38.2874 20.7869 38.7892 21.0425C39.3596 21.3332 40.1064 21.3332 41.5998 21.3332H52.6146M42.6665 34.6663H21.3332M42.6665 45.333H21.3332M26.6665 23.9997H21.3332M37.3332 5.33301H23.4665C18.9861 5.33301 16.7459 5.33301 15.0346 6.20496C13.5293 6.97194 12.3054 8.19579 11.5385 9.70108C10.6665 11.4124 10.6665 13.6526 10.6665 18.133V45.8663C10.6665 50.3468 10.6665 52.587 11.5385 54.2983C12.3054 55.8036 13.5293 57.0274 15.0346 57.7944C16.7459 58.6663 18.9861 58.6663 23.4665 58.6663H40.5332C45.0136 58.6663 47.2538 58.6663 48.9651 57.7944C50.4704 57.0274 51.6942 55.8036 52.4612 54.2983C53.3332 52.587 53.3332 50.3468 53.3332 45.8663V21.333L37.3332 5.33301Z" stroke="#666666" stroke-width="2" stroke-linecap="round" stroke-linejoin="round"/>
</svg>
