<svg width="25" height="22" viewBox="0 0 25 22" fill="none" xmlns="http://www.w3.org/2000/svg">
<path d="M12.3409 21.3314C8.74703 21.3314 5.15318 21.3314 1.55932 21.3314C1.38376 21.3314 1.20594 21.3314 1.02962 21.3135C0.129899 21.2306 -0.231807 20.6324 0.151844 19.8237C0.484795 19.1255 0.848015 18.4452 1.20064 17.7544C2.8654 14.502 4.53015 11.2501 6.19491 7.99868C6.24637 7.89936 6.30009 7.80004 6.35987 7.7052C6.77909 7.04208 7.46012 6.94873 7.99663 7.52075C8.37498 7.92102 8.69507 8.37057 9.03256 8.80444C10.7478 11.0164 12.463 13.2293 14.1782 15.4432C14.9273 16.4065 15.8709 16.4588 16.751 15.5925C17.1876 15.1624 17.6144 14.7211 18.0563 14.2947C18.8531 13.5255 19.7574 13.5718 20.4081 14.4686C21.7142 16.2683 22.9878 18.0919 24.2674 19.9096C24.3674 20.0522 24.444 20.2094 24.4944 20.3756C24.6185 20.793 24.4429 21.129 24.0139 21.2403C23.7448 21.3039 23.4687 21.3332 23.1921 21.3277C19.577 21.3336 15.96 21.3349 12.3409 21.3314Z" fill="#C2C2C2"/>
<path d="M20.4006 3.50989C20.3997 4.20409 20.1899 4.88239 19.7979 5.4588C19.4058 6.03521 18.8492 6.48376 18.1985 6.7476C17.5479 7.01143 16.8325 7.07867 16.143 6.94078C15.4536 6.80289 14.8212 6.46608 14.326 5.97306C13.8307 5.48004 13.495 4.853 13.3613 4.17145C13.2276 3.4899 13.302 2.78452 13.5751 2.14474C13.8481 1.50497 14.3075 0.959605 14.895 0.577794C15.4825 0.195984 16.1716 -0.00507815 16.8751 9.74632e-05C17.8118 0.0118443 18.7063 0.386358 19.3657 1.0429C20.0252 1.69945 20.3969 2.58544 20.4006 3.50989Z" fill="#C2C2C2"/>
</svg>
